<?xml version="1.0" encoding="utf-8"?>
<!-- Generator: Adobe Illustrator 22.0.0, SVG Export Plug-In . SVG Version: 6.00 Build 0)  -->
<svg version="1.1" id="Layer_1" xmlns="http://www.w3.org/2000/svg" xmlns:xlink="http://www.w3.org/1999/xlink" x="0px" y="0px"
	 viewBox="0 0 273.4 234.6" style="enable-background:new 0 0 273.4 234.6;" xml:space="preserve">
<style type="text/css">
	.st0{fill:#F26522;}
	.st1{fill:#333333;}
</style>
<g>
	<path class="st0" d="M64.2,101.1c0.2,0.8,0.3,1.7,0.3,2.5c0.1,0.9,0.1,1.8,0.1,2.7c0,3.1-0.5,6.3-1.4,9.5c-0.9,3.2-2.2,6.4-3.8,9.4
		c-1.6,3-3.5,5.8-5.7,8.5c-2.2,2.7-4.6,5-7.2,7c1.1,0.4,2.2,0.8,3.2,1.2c1.1,0.4,2.2,0.8,3.2,1.3c1.7,0.6,3.5,1.2,5.2,1.9
		c1.7,0.6,3.4,1.2,5.1,1.7c1.7,0.5,3.3,0.9,4.8,1.2c1.5,0.3,3,0.5,4.3,0.5c1.8,0,3.6-0.3,5.3-1c0.5,0,0.9,0.3,1.2,1
		c0.4,0.6,0.5,1.5,0.5,2.5c0,0.8-0.1,1.7-0.3,2.6c-0.2,0.9-0.6,1.7-1.2,2.4c-0.5,0.7-1.3,1.3-2.2,1.8c-0.9,0.5-2,0.7-3.4,0.7
		c-1.2,0-2.6-0.2-4.1-0.6c-1.5-0.4-3.1-0.9-4.8-1.6c-1.7-0.7-3.5-1.5-5.4-2.3c-1.9-0.9-3.8-1.8-5.7-2.7c-2.2-1-4.4-2.1-6.7-3.1
		c-2.3-1.1-4.5-2-6.8-2.8c-4.4,1.9-9.1,2.9-13.9,2.9c-3.8,0-7.2-0.5-10.3-1.6c-3.1-1.1-5.7-2.7-7.9-4.8c-2.2-2.1-3.8-4.7-5-7.7
		c-1.2-3-1.8-6.5-1.8-10.4c0-2.2,0.2-4.5,0.6-6.8c0.4-2.3,1-4.6,1.8-6.9c0.8-2.3,1.8-4.5,3-6.8c1.2-2.2,2.5-4.4,4-6.4
		c1.2-1.5,2.5-3,4-4.6c1.5-1.6,3-3,4.6-4.2c1.6-1.3,3.2-2.3,4.9-3.1c1.7-0.8,3.2-1.2,4.7-1.2c1.5,0,2.8,0.2,3.9,0.7
		c1.1,0.5,1.6,1.1,1.6,1.9c0,0.6-0.4,1.3-1.3,1.9C29,90,26.4,92.3,24,94.9c-2.4,2.6-4.6,5.5-6.3,8.5c-1.8,3.1-3.2,6.3-4.2,9.6
		c-1,3.3-1.5,6.7-1.5,9.9c0,3.5,0.5,6.6,1.6,9.3s2.5,5,4.4,7c1.7-0.9,3.4-1.5,5.2-1.9c1.8-0.4,3.7-0.6,5.5-0.6
		c2.2,0,4.5,0.2,6.8,0.7c2.3,0.4,4.5,1,6.8,1.7c2.9-1.8,5.5-3.9,7.8-6.5c2.3-2.5,4.3-5.2,5.9-8.1c1.6-2.9,2.9-5.9,3.7-9
		c0.9-3.1,1.3-6.2,1.3-9.2c0-2-0.2-4-0.7-6c-0.5-2-1.2-3.9-2.2-5.5c-1-1.6-2.1-3-3.5-4.1c-1.4-1.1-2.9-1.6-4.6-1.6
		c-1.2,0-2.7,0.5-4.4,1.4c-1.6,1-3.1,2.2-4.6,3.6c-1.4,1.4-2.6,3-3.6,4.6c-1,1.7-1.8,3.5-2.4,5.4c-0.6,1.9-0.9,3.8-0.9,5.7
		c0,1.2,0.1,2.4,0.3,3.5c0.2,1.1,0.5,2.1,0.8,3.1c0.4,1,0.9,2,1.5,3.1c0.6,1,1.3,2.2,2.2,3.4c0.3,0.5,0.4,0.9,0.4,1.2
		c0,0.5-0.2,0.9-0.5,1.3c-0.3,0.4-0.8,0.7-1.3,1c-0.5,0.3-1.2,0.5-1.9,0.7c-0.7,0.2-1.4,0.2-2.2,0.2c-2,0-3.7-0.6-5.1-1.9
		c-1.4-1.3-2.5-2.8-3.5-4.6c-0.9-1.8-1.6-3.8-2-5.8c-0.4-2-0.6-3.8-0.6-5.2c0-3.8,0.7-7.3,2.2-10.4c1.5-3.1,3.3-5.8,5.6-8
		c2.3-2.2,4.8-3.9,7.6-5.1c2.8-1.2,5.6-1.8,8.3-1.8c2.3,0,4.4,0.4,6.5,1.2c2,0.8,3.9,1.9,5.5,3.3c1.6,1.4,3,3.2,4.1,5.2
		C62.9,96.3,63.7,98.6,64.2,101.1z M28.6,143.4c0.7,0,1.3,0,2-0.1c0.7-0.1,1.4-0.2,2.1-0.2c-2.9-0.9-5.5-1.3-7.9-1.3
		c-0.5,0-1.1,0-1.6,0.1c-0.5,0-1,0.1-1.5,0.2c1.1,0.5,2.2,0.9,3.3,1.1C26.3,143.2,27.5,143.4,28.6,143.4z"/>
	<path class="st1" d="M125.1,85.6c1.5,0.6,3,1.5,4.5,2.6c1.4,1.1,2.7,2.3,3.7,3.7c1.1,1.4,1.9,2.8,2.6,4.4c0.6,1.6,1,3.2,1,4.7
		c0,0.7-0.1,1.4-0.2,2.2c-0.1,0.8-0.3,1.5-0.7,2.2c-0.4,0.7-0.9,1.3-1.5,1.7c-0.7,0.5-1.6,0.7-2.7,0.7c-1.1,0-2.1-0.2-3-0.7
		c-0.9-0.4-1.4-1-1.4-1.7c0-0.3,0.1-0.6,0.3-0.9v0.1c0.7-1,1.2-2.1,1.5-3.1c0.3-1,0.4-2.1,0.4-3.1c0-1.2-0.2-2.4-0.6-3.5
		c-0.4-1.1-1-2-1.6-2.8c-0.7-0.8-1.4-1.4-2.2-1.9c-0.8-0.5-1.7-0.7-2.6-0.7c-0.6,0-1.1,0.4-1.3,1.1c-0.2,0.7-0.3,1.6-0.3,2.7
		c0,1.4,0.1,2.9,0.4,4.6c0.3,1.7,0.6,3.3,1,5c0.4,1.6,0.8,3.1,1.2,4.4c0.4,1.3,0.7,2.3,0.9,2.9c1,3,2,6,2.9,9.2
		c0.9,3.1,1.3,6.2,1.3,9.2c0,1.3-0.1,2.7-0.4,4c-0.2,1.4-0.6,2.6-1,3.8c-0.6,1.6-1.6,3.1-2.8,4.4c-1.3,1.4-2.8,2.6-4.5,3.6
		c-1.7,1-3.6,1.8-5.7,2.4c-2.1,0.6-4.2,0.9-6.5,0.9c-3,0-5.8-0.2-8.5-0.7c-2.7-0.5-5.1-1.3-7.1-2.4c-2.1-1.1-3.7-2.7-4.9-4.6
		c-1.2-1.9-1.8-4.3-1.8-7.1c0-2.2,0.4-4.2,1.2-6.2c0.8-2,1.8-3.7,3.1-5.1c1.3-1.5,2.8-2.6,4.4-3.5c1.7-0.9,3.4-1.3,5.2-1.3
		c1.2,0,2.5,0.2,3.9,0.7c1.4,0.4,2.7,1.1,4,1.9c1.2,0.9,2.2,1.9,3.1,3.1c0.8,1.2,1.2,2.7,1.2,4.3c0,0.5,0,1.1-0.1,1.7
		c-0.1,0.6-0.3,1.2-0.6,1.7c-0.3,0.5-0.8,0.9-1.4,1.3c-0.6,0.3-1.4,0.5-2.4,0.5c-0.6,0-1.2-0.1-1.7-0.2c-0.6-0.1-1.1-0.3-1.5-0.6
		c-0.5-0.2-0.8-0.5-1.1-0.8c-0.3-0.3-0.4-0.7-0.4-1c0-0.1,0-0.2,0.1-0.4c0-0.2,0.1-0.4,0.2-0.5c0.6-1.2,0.9-2.3,0.9-3.3
		c0-1.4-0.4-2.6-1.3-3.4c-0.9-0.8-1.9-1.3-3-1.3c-1.2,0-2.5,0.3-3.6,1c-1.2,0.7-2.2,1.6-3.1,2.7c-0.9,1.1-1.7,2.5-2.2,4
		c-0.6,1.5-0.8,3.1-0.8,4.7c0,1.7,0.3,3.2,1,4.5c0.7,1.3,1.6,2.4,2.8,3.4c1.2,0.9,2.5,1.6,4,2.1c1.5,0.5,3.1,0.7,4.8,0.7
		c2.6,0,4.9-0.4,6.7-1.2c1.9-0.8,3.4-1.9,4.6-3.3c1.2-1.4,2.1-3,2.7-4.8c0.6-1.8,0.9-3.7,0.9-5.6c0-2.9-0.4-5.7-1.2-8.6
		c-0.8-2.9-1.7-5.8-2.7-8.6c-1-2.8-1.8-5.5-2.6-8.3c-0.8-2.7-1.2-5.3-1.2-7.8c0-1.5,0.2-3,0.6-4.2c0.4-1.3,1-2.4,1.9-3.4
		c0.9-1,1.9-1.7,3.1-2.2c1.2-0.5,2.7-0.8,4.4-0.8c1.1,0,2.1,0.1,3.2,0.3C123.3,84.9,124.2,85.2,125.1,85.6z"/>
	<path class="st1" d="M163.8,110.4c0.5,0.3,0.8,0.8,0.8,1.4c0,0.1,0,0.2-0.1,0.4c0,0.2-0.1,0.4-0.2,0.6c-1,2-2.2,4-3.6,6.1
		c-1.5,2.1-3.1,4.1-4.9,5.9c-1.8,1.8-3.7,3.3-5.7,4.4c-2,1.2-4.1,1.7-6.1,1.7c-1.6,0-3-0.3-4.1-0.8c-1.1-0.5-2-1.2-2.7-2.1
		c-0.7-0.9-1.2-1.8-1.5-2.9c-0.3-1.1-0.5-2.1-0.5-3.2c0-1.3,0.2-2.7,0.6-4.2c0.4-1.5,0.8-2.8,1.3-4c2.1-4.7,4.6-8.2,7.5-10.5
		c2.9-2.3,5.9-3.4,9-3.4c1.8,0,3.1,0.4,3.9,1.2c0.8,0.8,1.2,1.9,1.2,3.2c0,1.2-0.3,2.5-1,4c-0.7,1.5-1.6,2.9-2.9,4.2
		c-1.3,1.4-2.8,2.6-4.5,3.8c-1.8,1.2-3.7,2-5.9,2.6c-0.2,0.8-0.4,1.5-0.5,2.2c-0.1,0.7-0.2,1.4-0.2,2.1c0,1.2,0.2,2,0.5,2.7
		c0.3,0.6,0.9,0.9,1.7,0.9c1.3,0,2.7-0.5,4.3-1.6c1.6-1.1,3.1-2.4,4.5-4c1.4-1.6,2.7-3.3,3.9-5.1c1.2-1.8,2-3.4,2.6-4.8
		c0.2-0.7,0.8-1.1,1.6-1.1c0.1,0,0.3,0,0.4,0C163.5,110.3,163.7,110.4,163.8,110.4L163.8,110.4z M154.5,103.5
		c-1,0.1-2.3,1.1-3.9,3.1c-1.6,2-3.2,4.8-4.8,8.3c1.6-0.7,2.9-1.5,4.1-2.4c1.2-0.9,2.1-1.9,2.9-2.9c0.7-1,1.3-1.9,1.7-2.9
		c0.4-0.9,0.6-1.7,0.6-2.3C155,104,154.9,103.7,154.5,103.5z"/>
	<path class="st1" d="M182.2,104.6c0,0.2,0,0.4,0,0.6c0,0.2-0.1,0.3-0.1,0.5c0.3-0.7,0.5-1.3,0.7-1.8c0.2-0.5,0.2-0.9,0.2-1.3
		c0-0.1,0-0.2-0.1-0.4c-0.1-0.1-0.1-0.2-0.2-0.2c0-0.1-0.1-0.2-0.1-0.4c0-0.5,0.3-0.9,1-1.2c0.7-0.4,1.5-0.5,2.5-0.5
		c0.5,0,1.1,0.1,1.7,0.2c0.6,0.2,1.1,0.4,1.6,0.8c0.5,0.4,0.9,0.9,1.2,1.6c0.3,0.7,0.5,1.5,0.5,2.5c0,0.9-0.2,1.9-0.5,3.1
		c-0.4,1.1-0.8,2.3-1.4,3.6c-0.6,1.2-1.2,2.5-1.8,3.7c-0.7,1.2-1.3,2.4-1.9,3.5c-0.9,1.6-1.7,3.1-2.4,4.4c-0.7,1.4-1.1,2.4-1.1,3
		c0,0.2,0.1,0.4,0.4,0.4c0.3,0,0.8-0.3,1.4-0.8c0.6-0.5,1.3-1.3,2.1-2.2c0.8-0.9,1.6-1.9,2.4-3c0.8-1.1,1.6-2.2,2.3-3.4
		c0.7-1.1,1.4-2.2,2-3.3c0.6-1.1,1-2,1.3-2.7c0.3-0.7,0.8-1.1,1.6-1.1c0.5,0,0.9,0.1,1.2,0.4s0.5,0.6,0.5,1.1c0,0.1,0,0.2-0.1,0.3
		c0,0.1-0.1,0.3-0.1,0.3c-0.4,0.8-1,1.9-1.7,3.1c-0.7,1.2-1.5,2.5-2.4,3.9c-0.9,1.4-1.9,2.7-2.9,4.1c-1,1.4-2.1,2.6-3.1,3.7
		c-1.1,1.1-2.2,2-3.2,2.7c-1.1,0.7-2.1,1-3.1,1c-1.5,0-2.6-0.5-3.5-1.4c-0.9-1-1.4-2.3-1.6-3.9c-1.2,1.6-2.4,2.9-3.8,3.9
		c-1.4,1-2.9,1.5-4.7,1.5c-1.6,0-2.9-0.3-4.1-0.8c-1.1-0.6-2-1.3-2.7-2.2c-0.7-0.9-1.2-1.8-1.5-2.9c-0.3-1.1-0.5-2.1-0.5-3.2
		c0-1.3,0.2-2.7,0.6-4.1c0.4-1.4,0.8-2.8,1.3-4c2-4.9,4.5-8.4,7.3-10.6c2.8-2.2,5.7-3.3,8.7-3.3c0.5,0,1.1,0.1,1.8,0.2
		c0.7,0.1,1.3,0.4,2,0.7c0.6,0.4,1.2,0.9,1.6,1.5C181.9,102.8,182.2,103.6,182.2,104.6z M177,105.2c0-0.7,0.2-1.3,0.7-1.7h-0.1
		c-1,0-2.3,1-3.9,3c-1.6,2-3.2,4.8-4.9,8.5c-0.6,1.2-1,2.5-1.4,3.9c-0.3,1.4-0.5,2.7-0.5,3.9c0,1.1,0.2,2,0.5,2.8
		c0.3,0.8,0.8,1.2,1.5,1.2c0.6,0,1.3-0.4,2-1.1c0.7-0.7,1.4-1.7,2.2-2.8c0.7-1.1,1.5-2.4,2.2-3.8c0.7-1.4,1.5-2.8,2.2-4.1v0.1
		c0.2-0.5,0.5-1,0.7-1.5c0.3-0.5,0.5-0.9,0.7-1.4v0.1l1.2-2.6l1.5-3.4c-0.2,0.5-0.5,0.8-0.9,1c-0.4,0.2-0.8,0.3-1.3,0.3
		c-0.7,0-1.3-0.2-1.8-0.6C177.3,106.5,177,106,177,105.2z"/>
	<path class="st1" d="M196.9,113c-0.3,0.6-0.8,0.9-1.5,0.9c-0.5,0-0.9-0.1-1.2-0.4c-0.3-0.3-0.5-0.7-0.5-1.1c0-0.2,0.2-0.7,0.5-1.5
		c0.3-0.7,0.7-1.5,1-2.4c0.3-0.8,0.7-1.6,1-2.4c0.3-0.8,0.6-1.5,0.8-2.2c-0.9-0.6-1.7-1.4-2.4-2.3c-0.7-1-1-1.9-1-2.9
		c0-1.4,0.4-2.6,1.1-3.6c0.7-1,1.9-1.5,3.5-1.5c1,0,1.8,0.4,2.6,1.1c0.8,0.8,1.2,1.7,1.2,2.8c0,0.5,0,1.1-0.1,1.9
		c0,0.8-0.1,1.5-0.2,2.1c0.4,0.1,0.8,0.1,1.2,0.1c0.9,0,1.5-0.1,2-0.3c0.5-0.2,0.9-0.5,1.3-0.7v0.1c0.4-0.2,0.8-0.4,1.2-0.6
		c0.4-0.2,0.9-0.3,1.5-0.3c0.5,0,1,0.1,1.7,0.2c0.6,0.1,1.2,0.4,1.7,0.8c0.5,0.4,0.9,0.9,1.3,1.6c0.3,0.7,0.5,1.5,0.5,2.5
		c0,0.9-0.2,1.9-0.5,3.1c-0.4,1.1-0.8,2.3-1.4,3.6c-0.6,1.3-1.2,2.5-1.8,3.7c-0.7,1.2-1.3,2.4-1.9,3.5c-0.9,1.6-1.7,3.1-2.4,4.4
		c-0.7,1.4-1.1,2.4-1.1,3c0,0.3,0.1,0.4,0.4,0.4c0.3,0,0.8-0.3,1.4-0.8c0.6-0.5,1.3-1.3,2.1-2.2c0.8-0.9,1.6-1.9,2.4-3
		c0.8-1.1,1.6-2.2,2.3-3.4c0.7-1.1,1.4-2.2,2-3.3c0.6-1.1,1-2,1.3-2.7c0.3-0.7,0.8-1.1,1.6-1.1c0.5,0,0.9,0.1,1.2,0.4
		s0.5,0.6,0.5,1.1c0,0.1,0,0.2-0.1,0.3c0,0.1-0.1,0.3-0.1,0.3c-0.4,0.8-1,1.9-1.7,3.1c-0.7,1.2-1.5,2.5-2.4,3.9
		c-0.9,1.4-1.9,2.7-2.9,4.1c-1,1.4-2.1,2.6-3.1,3.7c-1.1,1.1-2.2,2-3.2,2.7c-1.1,0.7-2.1,1-3.1,1c-1.6,0-2.9-0.6-3.8-1.7
		c-0.9-1.1-1.3-2.7-1.3-4.7c0-1.1,0.2-2.3,0.5-3.6c0.3-1.2,0.7-2.5,1.2-3.8c0.5-1.3,1-2.6,1.6-3.9c0.6-1.3,1.1-2.5,1.7-3.7
		c0.5-1.1,0.9-1.9,1.2-2.5c0.3-0.6,0.5-1.2,0.7-1.9c-0.8,0.2-1.7,0.2-2.6,0.2c-0.8,0-1.6-0.1-2.3-0.2c-0.2,0.5-0.4,1.1-0.7,1.8
		c-0.3,0.7-0.6,1.5-1,2.3c-0.4,0.8-0.7,1.5-1,2.2C197.4,112.2,197.1,112.7,196.9,113L196.9,113z"/>
	<path class="st1" d="M232.7,105.2c0-0.7,0.2-1.3,0.7-1.7h-0.1c-1,0-2.3,1-3.9,3c-1.6,2-3.2,4.8-4.9,8.5c-0.6,1.2-1.1,2.6-1.4,4.1
		c-0.4,1.5-0.5,2.9-0.5,4.1c0,1.2,0.2,2.1,0.5,2.7c0.3,0.6,0.9,0.9,1.7,0.9c1.3,0,2.7-0.5,4.3-1.6c1.6-1.1,3.1-2.4,4.5-4
		c1.4-1.6,2.7-3.3,3.9-5.1c1.2-1.8,2-3.4,2.6-4.8c0.2-0.7,0.8-1.1,1.6-1.1c0.5,0,0.9,0.2,1.2,0.5c0.4,0.3,0.5,0.7,0.5,1l-0.2,0.7
		c-0.9,1.9-2.1,3.9-3.6,6c-1.5,2.2-3.1,4.2-4.9,6c-1.8,1.9-3.7,3.4-5.8,4.6c-2.1,1.2-4.1,1.8-6.1,1.8c-1.6,0-3-0.3-4.1-0.8
		s-2-1.3-2.7-2.2c-0.7-0.9-1.2-1.8-1.5-2.9c-0.3-1.1-0.5-2.1-0.5-3.2c0-1.3,0.2-2.7,0.6-4.1c0.4-1.4,0.8-2.8,1.3-4
		c2-4.9,4.4-8.4,7.2-10.6c2.8-2.2,5.7-3.3,8.7-3.3c0.5,0,1.1,0.1,1.8,0.2c0.7,0.1,1.3,0.4,2,0.7c0.6,0.4,1.2,0.9,1.6,1.5
		c0.4,0.6,0.7,1.4,0.7,2.4c0,1.1-0.3,1.8-0.8,2.3c-0.5,0.4-1.1,0.7-1.8,0.7c-0.7,0-1.3-0.2-1.8-0.6C233,106.5,232.7,106,232.7,105.2
		z"/>
	<path class="st1" d="M235.3,127.6c-0.1-0.2-0.1-0.4-0.2-0.6c0-0.2,0-0.4,0-0.6c0-1,0.3-2.5,0.9-4.5c0.6-1.9,1.4-4.1,2.3-6.5
		c1-2.4,2-4.9,3.1-7.5c1.1-2.6,2.3-5.1,3.4-7.6c0.8-1.9,1.7-3.7,2.5-5.5c0.8-1.8,1.5-3.4,2.2-4.9c0.6-1.5,1.1-2.8,1.5-3.9
		c0.4-1.1,0.6-1.9,0.6-2.3c0-0.1,0-0.1-0.1-0.2c-0.1-0.1-0.2-0.3-0.2-0.6c0-0.5,0.4-0.9,1.1-1.2c0.7-0.4,1.5-0.5,2.5-0.5
		c0.5,0,1,0.1,1.6,0.2c0.6,0.1,1.1,0.4,1.6,0.7c0.5,0.3,0.9,0.8,1.2,1.4c0.3,0.6,0.5,1.3,0.5,2.2c0,0.8-0.2,1.9-0.5,3.1
		c-0.3,1.2-0.8,2.6-1.4,4.1s-1.3,3.1-2,4.8c-0.8,1.7-1.6,3.5-2.5,5.2c1.1-1,2.2-1.7,3.3-2.3c1.1-0.6,2.2-0.9,3.2-0.9
		c1.6,0,2.8,0.6,3.7,1.7c0.9,1.1,1.4,2.7,1.4,4.7c0,0.3,0,0.6,0,0.9c0,0.3-0.1,0.6-0.1,0.8c-0.1,1-0.3,2-0.6,3
		c-0.3,1-0.7,2.1-1.1,3.1c-0.4,1.1-0.9,2.1-1.4,3.1s-1,2-1.4,2.9c-0.7,1.3-1.2,2.5-1.7,3.5c-0.5,1-0.7,1.9-0.7,2.4
		c0,0.4,0.2,0.6,0.7,0.6c0.3,0,0.8-0.3,1.5-0.9c0.6-0.6,1.3-1.3,2.1-2.2c0.7-0.9,1.5-1.9,2.3-3.1c0.8-1.1,1.6-2.3,2.3-3.4
		c0.7-1.1,1.3-2.2,1.9-3.2c0.6-1,1-1.9,1.2-2.5c0.3-0.7,0.8-1.1,1.6-1.1c0.5,0,0.9,0.1,1.2,0.4c0.4,0.3,0.5,0.6,0.5,1.1
		c0,0.1,0,0.2-0.1,0.3c0,0.1-0.1,0.3-0.1,0.3c-0.4,0.8-1,1.9-1.7,3.1c-0.7,1.2-1.5,2.5-2.4,3.9c-0.9,1.4-1.9,2.7-2.9,4.1
		c-1,1.4-2.1,2.6-3.1,3.7c-1.1,1.1-2.2,2-3.2,2.7c-1.1,0.7-2.1,1-3.1,1c-0.8,0-1.6-0.2-2.2-0.5c-0.6-0.4-1.1-0.8-1.6-1.5
		c-0.4-0.6-0.7-1.4-1-2.2c-0.2-0.8-0.3-1.7-0.3-2.6c0-1.3,0.2-2.6,0.5-3.9c0.3-1.3,0.7-2.6,1.2-3.8c0.5-1.2,1-2.4,1.6-3.6
		c0.6-1.1,1.1-2.2,1.6-3.2c0.6-1.2,1.1-2.2,1.5-3.1c0.4-0.9,0.7-1.5,0.7-2c0-0.3-0.2-0.5-0.7-0.5c-0.5,0-1.2,0.4-2.1,1.2
		c-1,0.8-2,1.8-3.1,3c-1.1,1.2-2.2,2.5-3.2,3.9c-1.1,1.4-2,2.7-2.7,4v-0.1l-0.8,1.6v-0.1c0,0-0.1,0.1-0.1,0.1v0.1
		c-1.2,2.5-2.1,4.6-2.8,6.4c-0.7,1.8-1.1,3.1-1.1,4c0,0.3,0,0.5,0.1,0.5v-0.1c0.1,0.1,0.1,0.3,0.1,0.5c0,0.5-0.3,0.9-0.9,1.3
		c-0.6,0.4-1.3,0.6-2.1,0.6c-0.8,0-1.6-0.2-2.4-0.7C236.3,129.8,235.7,128.9,235.3,127.6L235.3,127.6z"/>
</g>
</svg>
